<?xml version="1.0" encoding="UTF-8" standalone="no"?>
<!DOCTYPE svg PUBLIC "-//W3C//DTD SVG 1.1//EN" "http://www.w3.org/Graphics/SVG/1.1/DTD/svg11.dtd">
<!-- Created with Vectornator (http://vectornator.io/) -->
<svg height="100%" stroke-miterlimit="10" style="fill-rule:nonzero;clip-rule:evenodd;stroke-linecap:round;stroke-linejoin:round;" version="1.1" viewBox="0 0 1693 564" width="100%" xml:space="preserve" xmlns="http://www.w3.org/2000/svg" xmlns:vectornator="http://vectornator.io" xmlns:xlink="http://www.w3.org/1999/xlink">
<defs>
<clipPath id="TextBounds">
<rect height="309.248" transform="matrix(1 0 0 1 182.149 127.376)" width="1328.7" x="0" y="0"/>
</clipPath>
</defs>
<g id="Layer-1" vectornator:layerName="Layer 1">
<g fill="#c9d1d9" opacity="1" stroke="none">
<path clip-path="url(#TextBounds)" d="M467.473 324.168C467.473 324.6 467.473 325.032 467.689 325.248C467.905 325.464 468.121 325.464 468.337 325.464C468.337 325.68 468.121 325.896 467.689 325.896L467.257 325.896L468.337 325.896L468.337 325.464C472.873 315.312 476.113 303.864 478.921 294.576C481.729 291.336 484.321 287.448 486.697 283.992C491.233 282.912 493.177 280.536 496.849 279.888C498.793 277.512 501.385 278.376 503.761 278.376C505.273 278.376 506.785 276.648 507.433 276C508.945 276.648 554.521 256.128 557.113 249C559.489 247.272 558.193 244.032 561.217 244.032L562.297 240.144C564.025 235.824 564.241 231.504 562.297 229.128C555.169 226.536 546.097 226.32 538.321 228.696C541.993 229.344 546.961 228.912 551.281 228.912C555.601 228.912 559.057 229.776 561.649 233.016C563.161 237.336 559.921 241.44 556.249 244.896C552.145 249 548.473 256.56 542.425 254.832C529.681 262.392 517.585 270.384 504.409 275.568C498.145 276.216 494.689 279.024 487.777 278.376C490.585 275.568 492.529 272.976 495.337 270.384C496.417 269.088 497.065 268.44 497.713 268.44L508.945 256.56C510.025 255.912 510.457 253.968 512.185 253.968C518.881 248.136 522.985 240.792 529.681 234.744C533.137 233.016 533.137 228.696 538.105 227.616C543.073 220.704 547.393 215.304 553.657 208.608L556.465 208.608C562.297 205.152 566.833 202.776 572.017 197.592C572.017 196.944 573.745 196.08 573.529 195.432L578.929 192.408C583.033 191.76 584.113 195.216 585.841 197.16L584.977 197.592C584.113 198.456 585.409 199.32 586.057 199.968C586.705 197.16 587.353 194.352 585.625 191.76C582.385 189.168 576.553 191.112 572.233 191.76C573.745 188.088 580.441 187.008 580.441 182.256L578.281 181.824L563.593 194.352C548.473 205.368 511.105 229.992 507.217 229.992C498.361 236.904 490.153 244.032 482.593 251.376C483.457 252.24 482.161 253.104 481.513 253.968C479.785 254.832 478.705 254.832 477.193 254.832C470.929 260.232 466.609 268.44 466.825 276C467.905 278.808 468.553 282.912 472.873 282.912C466.177 287.016 462.505 293.712 458.185 300.408C456.673 300.408 455.593 302.568 455.377 303.216C446.953 314.664 436.801 325.032 426.649 335.184C418.657 345.768 406.561 355.056 396.409 364.344C385.825 374.496 375.241 384.216 363.361 393.072C353.641 399.984 345.001 405.816 335.281 408.192C331.177 410.568 325.345 410.568 321.241 410.568C318.649 409.704 316.489 406.896 315.409 404.52C315.193 402.144 315.409 399.768 316.057 396.96C316.705 394.368 317.353 391.992 318.433 390.048C320.161 382.704 326.857 378.168 329.233 371.904C334.417 368.448 334.849 361.32 341.113 360.24C341.977 358.728 341.545 357.432 341.761 357.216C341.977 357 342.625 356.784 343.273 356.784C343.921 356.784 344.137 357 344.137 357.216C344.353 357.216 344.353 357 344.353 356.784C346.081 355.272 348.457 352.896 351.049 352.896C357.097 347.496 362.497 344.472 368.329 341.016C373.297 338.64 376.969 335.184 381.937 334.536C385.609 332.808 389.065 332.808 392.521 331.944C395.113 330 397.489 331.944 399.865 331.944C402.457 330 405.913 331.296 408.505 328.704C410.881 330.648 413.689 327.192 417.145 327.84L417.361 326.976C406.777 328.704 397.273 327.84 386.905 330.648L387.121 330C383.665 330 379.993 333.456 376.321 333.456C368.545 335.832 360.769 340.8 353.857 346.632C349.537 347.496 346.297 351.6 342.841 354.408C341.977 354.408 341.545 354.624 341.329 355.272C339.601 357.216 337.657 358.728 335.065 361.104C327.937 367.152 324.697 374.28 319.297 380.976C315.841 388.536 312.817 396.528 313.033 404.088C314.977 405.816 314.761 408.624 316.489 411.432C319.729 412.512 323.617 413.376 327.937 413.376C330.313 412.512 332.689 411.648 334.417 411.648C340.681 409.704 349.321 405.816 356.017 402.576L346.081 408.624C342.193 407.544 338.737 412.512 334.417 412.512C330.313 412.512 325.561 415.536 321.457 414.672C318.865 416.184 316.489 414.672 314.545 415.536C312.817 416.184 310.657 414.672 309.577 415.536C303.529 412.512 295.105 411.432 291.001 404.52C290.785 403.44 288.193 404.52 288.841 401.712C285.817 401.712 286.681 397.392 284.305 397.392C287.761 406.68 293.809 416.4 305.689 417.48C339.817 423.312 373.513 395.016 402.025 373.2C403.753 372.336 405.265 371.04 406.345 369.312L418.873 359.16C424.273 353.328 429.241 348.792 434.209 343.392C441.337 338.64 445.441 330.432 451.705 325.464C456.025 320.28 460.561 315.96 463.801 311.424C469.417 308.616 470.713 302.136 476.329 299.76C475.465 303 474.385 304.512 473.305 307.752C472.441 314.448 470.065 319.2 467.473 324.168ZM528.385 227.616C525.577 228.696 523.201 232.368 520.609 232.368C517.585 233.016 514.345 234.744 510.673 237.336C511.321 238.416 512.185 238.416 512.833 238.416C514.561 238.416 516.289 236.472 518.017 236.472C518.665 236.472 519.097 236.688 519.745 237.336C514.345 241.44 509.377 246.408 505.057 252.24C500.953 254.832 495.769 257.424 494.905 261.744C490.369 266.712 484.105 272.976 476.329 281.4C473.089 281.4 470.497 278.808 470.281 276C470.065 275.784 470.065 275.352 470.281 274.704C470.497 274.056 470.497 273.624 470.497 272.976C471.145 270.384 471.793 266.496 473.521 264.552C474.169 264.552 474.385 264.12 475.465 263.04L474.601 263.04C478.057 256.56 487.129 252.24 491.665 246.624C497.497 242.304 502.897 238.416 507.649 234.744C515.641 228.912 524.281 222.864 525.793 222.864C532.705 220.056 538.321 213.36 544.369 211.632L528.385 227.616ZM780.457 428.928C780.673 427.2 780.241 425.688 780.457 423.312C779.377 422.448 778.513 422.232 778.513 420.504C778.081 419.856 777.001 419.64 775.489 419.64C774.409 418.128 772.681 417.912 770.737 418.992C768.361 421.368 766.633 417.696 765.553 416.616C763.825 415.968 764.257 414.672 761.881 414.024C760.801 413.376 759.721 411.648 757.777 411.432C757.993 409.704 757.561 409.704 756.913 409.704C751.729 405.6 746.113 401.712 741.577 397.392C740.065 396.744 738.121 395.88 737.257 395.232C736.609 395.232 736.177 394.8 736.393 394.152L731.857 391.56C729.481 390.048 726.673 388.752 726.457 388.752C725.593 388.104 724.297 386.592 721.921 386.592C722.137 386.16 721.705 385.944 721.057 385.944C720.841 385.296 720.193 384.864 719.113 384.864C718.249 384.864 717.601 384.648 717.385 384.216C716.737 383.136 716.521 383.136 715.873 383.136C713.065 380.76 709.609 379.464 706.801 378.816C705.937 378.168 705.505 378.168 705.505 377.304C703.561 377.304 702.481 376.008 701.617 376.656L701.833 376.008L700.753 376.008C698.377 374.28 696.649 374.28 693.841 373.2L693.193 373.2C692.329 373.2 691.681 371.904 690.601 372.552L689.953 371.904L682.609 368.448C681.745 369.096 681.097 369.096 680.665 368.448C678.073 368.232 676.561 366.72 675.049 366.72C673.969 366.72 672.673 367.368 672.889 365.856C672.241 365.856 671.377 366.72 671.161 365.856L670.081 365.856L670.297 365.208C670.081 364.992 670.081 364.992 669.865 365.208C668.353 365.856 668.137 365.856 667.273 365.856C681.313 370.176 693.625 374.28 706.585 379.248C706.585 380.112 706.801 380.544 707.017 380.544C707.449 380.544 707.881 380.76 708.097 380.976C710.689 381.84 712.417 383.136 714.793 384.216C715.441 384.432 716.737 384.432 716.737 385.08C718.249 384.432 718.249 386.592 719.113 386.592C720.625 386.592 720.625 388.32 723.217 388.32C724.081 390.048 726.241 390.264 727.321 391.776C728.833 391.776 729.697 392.424 729.913 393.072L737.473 398.688C741.145 401.496 744.817 404.304 745.465 404.52C746.545 406.896 748.489 407.112 749.569 408.624C751.513 410.568 752.809 411.648 754.321 413.376C754.105 414.024 755.617 414.672 756.265 415.536C756.481 416.184 758.209 415.968 757.993 417.48C758.209 418.992 759.721 417.48 759.937 418.128L760.369 418.56C760.585 418.776 760.369 418.992 759.721 418.992C759.073 419.64 760.585 420.504 760.369 421.584C760.585 422.232 760.585 422.448 761.233 423.312C760.153 425.04 761.665 425.472 761.449 426.12C761.233 426.984 761.233 427.416 761.449 427.416C762.313 431.52 765.121 433.032 767.929 433.248L770.737 433.248C770.521 433.464 770.521 433.464 770.737 433.464C770.737 433.68 770.953 433.464 770.953 434.112C771.169 434.112 771.169 434.328 771.385 434.544C771.385 434.76 771.385 434.76 771.601 434.976C771.817 435.408 772.465 435.624 773.545 435.624C773.761 435.408 780.457 431.088 780.457 428.928ZM333.121 332.808C335.065 330 336.361 326.976 334.849 324.168C331.609 321.36 330.745 316.176 325.561 315.528C322.105 317.04 318.865 319.632 317.353 322.872C320.161 327.84 311.737 334.968 316.273 340.152C319.513 340.152 322.321 336.912 325.993 336.048C329.233 338.856 331.177 336.048 333.121 332.808ZM315.625 205.152L313.897 204.288C312.169 206.232 311.305 209.904 309.793 211.848L309.361 213.36C306.985 216.6 306.769 218.976 305.041 222.216C306.121 223.296 303.961 225.024 303.745 226.536C304.609 229.128 301.369 230.64 301.153 233.016C302.017 234.744 299.209 237.12 299.857 238.632C299.209 241.44 297.913 244.032 298.129 247.272C296.617 248.352 297.481 250.296 297.049 252.24C296.833 252.888 296.617 253.32 295.969 253.968C295.753 254.832 294.673 257.424 297.265 257.424L293.593 260.664C293.593 262.824 291.217 266.064 292.945 268.44C289.273 269.952 294.457 271.68 291.649 274.056C292.297 276 294.457 278.808 292.945 280.32C293.377 284.208 292.513 288.096 290.569 291.984C291.217 294.576 289.273 298.248 288.625 301.488C288.841 299.76 290.785 298.248 290.569 297.384C294.673 290.472 290.137 285.288 294.889 278.376C297.697 276 299.425 274.056 300.505 271.68C297.481 270.816 298.561 267.576 298.993 264.984C299.209 263.904 299.209 263.04 299.209 262.176C300.073 257.208 301.369 252.24 301.369 247.272L301.585 245.76C302.233 244.896 302.881 243.816 303.097 242.52C303.313 241.008 303.313 239.928 302.665 239.064C304.177 238.416 303.529 237.336 304.609 235.824C305.257 233.016 305.041 228.696 306.985 225.888C306.121 222.648 309.577 220.056 308.497 217.68L315.625 205.152ZM449.113 352.896C448.033 352.032 447.817 350.952 446.305 351.6C443.065 351.384 443.065 354.408 441.553 354.408C441.337 356.784 439.177 357.216 440.689 358.728C440.689 358.944 440.689 358.944 440.473 358.944C440.257 359.16 440.041 359.16 439.609 359.16L440.905 359.16L440.689 360.24C441.337 361.104 442.849 360.888 442.633 361.536C445.009 361.536 446.521 363.048 448.249 361.536C450.841 361.536 451.489 358.728 453.217 357.216L452.137 357.216L452.137 356.784C452.137 355.272 452.569 353.328 450.841 353.328L449.113 352.896ZM663.817 363.264C663.601 363.264 663.385 363.048 663.385 362.832C662.737 363.48 661.441 362.616 660.793 362.616C657.985 362.616 656.473 361.104 652.801 360.24C651.937 360.24 651.073 361.104 651.073 360.24C651.073 360.024 650.857 359.808 650.425 359.376C650.425 359.16 650.425 359.16 650.209 359.16L649.993 360.24L649.561 359.16C648.697 359.16 648.697 358.512 648.049 359.16C647.617 358.944 646.753 358.728 645.673 358.728C645.457 357.216 643.729 358.944 642.865 357.432C640.921 357.432 640.057 356.784 638.545 356.784C637.681 356.784 635.953 357.432 635.089 356.784C634.441 356.784 634.225 357.432 634.225 356.784L634.441 355.704C631.201 355.704 627.961 353.328 624.721 354.408C623.857 353.328 623.425 353.328 622.561 353.328C620.833 354.408 619.969 354.408 619.753 353.328C618.673 351.816 617.593 353.544 615.865 352.896C614.137 353.544 614.353 351.384 612.841 352.032C612.193 351.384 610.249 352.896 610.033 352.032L609.601 352.032C609.169 351.816 608.305 351.6 607.225 351.6L604.633 351.6C602.257 352.248 599.881 350.952 597.073 351.6C601.393 352.248 605.929 351.816 610.033 353.328C613.273 353.328 615.217 353.328 618.025 354.408C622.345 355.272 626.449 355.704 630.121 356.784C631.849 356.784 634.225 356.784 634.873 357.432C639.841 357.432 644.161 359.16 647.833 360.24C653.881 361.752 659.065 363.264 665.761 365.208L665.977 364.344L664.465 363.264L663.817 363.264ZM465.961 324.168C464.233 325.248 464.017 325.896 464.017 326.976L465.529 326.976C465.313 327.84 464.665 328.704 464.449 329.352C461.209 333.456 460.345 336.048 456.889 339.288C454.945 341.232 451.273 343.392 448.681 344.472C449.545 345.984 451.921 344.472 454.729 343.392C454.945 343.392 454.945 343.176 455.161 342.528C455.161 342.096 455.593 341.88 456.241 341.88C457.105 340.8 458.185 339.936 459.697 338.856C460.777 336.912 462.073 336.048 461.857 335.832C463.801 332.592 465.745 330 467.257 325.896C466.393 326.976 466.393 326.976 465.529 326.976C466.393 325.896 466.609 325.68 467.473 324.168L465.961 324.168ZM594.481 351.168C593.833 351.168 594.265 351.168 593.185 350.304C592.537 351.168 590.593 350.304 588.649 350.304C588.433 351.168 586.273 351.168 585.625 351.168C584.113 351.816 583.465 349.224 582.601 350.304C580.657 349.224 575.689 351.168 573.097 349.224C571.369 350.304 571.369 348.576 568.777 349.224C568.993 348.576 567.049 350.304 567.265 349.224L563.593 349.224C561.217 349.224 559.273 350.304 557.545 350.304L560.785 350.304C562.297 349.224 564.241 350.304 565.753 350.304C570.289 351.168 574.393 350.304 578.497 351.168C584.329 351.168 589.729 351.6 595.561 351.6L594.481 351.168ZM284.737 325.896C283.657 330.864 283.009 335.832 283.225 339.288C282.145 344.472 282.361 348.792 282.361 352.032C282.361 351.6 282.361 350.952 282.577 350.088C282.793 349.224 283.009 348.144 282.793 347.064C283.441 345.12 283.873 342.96 283.009 341.016C284.737 340.152 283.441 338.856 284.953 336.912C283.225 336.048 285.385 334.752 285.385 333.456C285.601 333.24 285.169 333.024 284.521 332.808C284.737 331.944 284.089 330.648 284.953 330.648C285.601 328.92 282.577 328.704 284.953 326.976L284.737 325.896ZM281.713 361.536C281.713 360.024 281.929 358.728 282.145 357.648C282.361 356.568 282.361 355.488 281.713 354.408L281.065 365.208C280.849 366.72 281.929 368.448 282.145 369.312C284.953 366.936 282.145 365.208 283.009 362.616L281.713 361.536ZM284.305 381.84C280.417 379.896 283.225 376.44 281.929 373.2C281.065 377.304 281.929 381.84 282.793 385.08C283.225 384.864 283.441 384.648 283.441 384.432C283.657 384.216 283.441 383.568 283.657 382.704L284.305 381.84ZM387.337 380.976C389.713 378.168 392.305 376.008 394.681 373.2C393.817 376.656 389.929 378.6 387.337 380.976ZM531.193 350.304L530.545 349.224C529.033 349.224 527.305 349.224 525.577 350.304L531.193 350.304ZM440.041 339.288C439.825 340.152 438.529 341.016 439.177 341.232L440.041 341.232C440.473 341.232 440.905 341.232 441.121 341.016L440.041 339.288ZM286.033 319.416C287.545 318.552 286.681 317.04 286.897 314.664C286.681 316.176 285.169 317.688 286.033 319.416ZM534.433 350.304C536.161 350.304 538.753 349.224 539.617 349.224C538.969 350.304 538.105 347.496 536.377 349.224C535.729 349.224 535.513 350.304 534.433 350.304ZM554.305 349.224C553.225 348.576 552.145 349.224 551.497 349.224C551.713 350.304 553.225 350.304 554.953 350.304C554.305 350.304 554.089 350.088 554.305 349.872C554.089 349.656 554.089 349.44 554.305 349.224ZM506.569 351.6C507.217 351.6 509.377 351.168 511.105 351.168L507.217 351.168C507.001 351.168 507.001 351.168 506.785 351.384L506.569 351.384L506.569 351.6ZM419.737 327.84L421.681 326.976C421.465 326.976 421.249 326.76 421.033 326.544C420.817 326.328 420.817 326.112 421.033 325.896L419.737 327.84ZM515.641 350.304C513.697 350.304 513.481 351.168 512.833 351.168L515.857 351.168C515.641 351.168 515.425 350.952 515.641 350.736L515.641 350.304ZM519.529 350.304C518.017 350.304 517.585 351.168 516.505 351.168C517.585 351.168 518.017 351.168 519.529 350.304ZM461.857 335.832C460.993 335.832 460.129 336.912 459.913 337.56C460.129 336.696 460.777 336.048 461.857 335.832ZM305.257 408.192L305.257 407.328L304.825 408.192L305.257 408.192ZM532.921 350.304L533.353 350.304L533.569 349.224L532.921 350.304Z"/>
<path clip-path="url(#TextBounds)" d="M536.809 298.896C534.865 301.704 534.001 301.488 530.329 302.568C530.113 302.568 529.465 303.216 530.113 303.432C530.329 304.08 531.625 304.08 530.977 304.944C518.881 312.504 509.161 318.552 495.121 320.496C494.473 319.632 493.393 318.768 492.745 317.688C492.097 315.312 494.473 313.8 496.201 311.424C497.929 310.344 505.057 306.672 511.969 303.432C515.857 301.488 520.177 299.544 525.145 297.384C526.873 296.52 529.249 295.872 531.193 295.872C533.569 295.872 535.729 296.52 536.809 298.896ZM573.961 307.752C561.649 312.936 547.609 315.744 534.001 319.2L532.921 319.2C534.433 314.232 539.833 310.776 543.073 306.672C544.801 304.944 547.393 304.944 547.393 302.568C546.097 296.952 541.561 304.296 538.753 301.488L541.129 300.408C542.641 298.896 543.721 298.248 543.721 296.304C541.345 292.2 538.105 291.984 534.001 291.984C516.937 294.36 502.897 303.216 488.425 310.776C486.697 310.776 484.969 311.856 483.457 313.368L481.297 315.744C482.161 316.824 481.297 317.688 480.649 318.336C480.649 319.848 480.433 324.6 483.025 326.112C484.753 327.192 487.561 327.408 489.937 327.408L494.473 327.408C506.137 325.68 515.209 317.04 526.657 314.232C524.065 315.96 523.849 319.2 523.849 322.008C529.681 326.76 537.673 323.088 543.721 321.36C547.393 320.496 553.009 318.768 558.409 315.96C564.457 314.232 569.857 312.072 573.097 311.424L573.961 310.776C574.609 310.128 575.041 309.696 575.473 309.48C576.985 308.4 575.905 307.752 573.961 307.752Z"/>
<path clip-path="url(#TextBounds)" d="M597.721 325.464C597.937 325.68 597.937 325.68 598.153 325.68C598.369 325.68 598.585 325.896 598.801 325.896C599.017 326.112 599.449 326.112 599.665 326.112L601.177 325.68C601.393 325.68 603.985 324.816 604.849 324.168L605.929 324.168C606.145 324.168 606.145 324.168 606.361 323.952C607.009 323.952 608.089 323.304 608.737 323.088L609.385 322.44C610.033 322.44 612.625 322.224 613.273 322.008C613.489 322.008 615.001 321.36 615.649 321.36L616.945 320.928C617.593 320.712 618.025 320.28 618.241 320.28L619.537 320.28C626.233 318.552 624.505 317.472 625.801 317.472C625.801 317.256 625.801 317.256 626.017 317.256C626.233 317.256 626.233 317.256 626.449 317.04C626.665 316.824 626.665 316.824 626.881 316.824L628.609 316.608C633.793 315.096 635.737 314.448 635.953 314.232C636.169 314.232 636.385 314.016 636.601 313.8C637.249 313.584 637.249 313.152 637.897 312.504L639.625 310.776C639.841 310.776 640.273 309.912 640.489 309.696L640.489 309.48L639.841 308.616C639.625 308.4 639.625 308.4 639.625 308.184C639.409 308.184 639.409 308.184 639.625 308.4L638.977 307.968C633.577 309.48 633.361 309.912 634.009 309.912C633.793 309.912 633.145 310.344 632.929 310.344C621.481 312.072 617.809 317.472 609.817 317.472C609.169 317.472 608.953 317.904 608.737 317.904C608.089 318.552 605.929 318.768 605.281 318.552L597.073 318.984C596.857 318.768 595.993 318.984 595.345 319.2L594.265 319.416C593.617 319.416 591.025 319.2 590.377 318.984C590.161 318.984 589.729 318.336 589.081 318.552C588.865 318.552 588.433 317.472 587.785 317.256L587.569 317.04C587.569 316.824 587.353 316.824 587.353 316.608L587.353 316.392L587.353 314.016L587.353 313.584C587.353 313.368 587.569 313.368 587.569 313.152L587.785 312.072C587.785 311.856 588.433 310.992 588.649 310.776C588.865 310.128 589.729 309.48 590.377 309.264L591.025 308.184C591.673 308.4 592.321 307.536 592.537 307.536L593.185 307.104C594.265 306.456 596.641 303.216 597.289 303L599.017 301.704C599.233 301.704 600.097 300.624 600.745 300.624C600.961 300.408 600.961 300.408 600.961 300.192C600.961 299.976 600.961 299.976 601.177 299.76C604.417 298.032 606.793 296.952 609.385 296.088C610.465 295.656 618.025 292.416 619.105 292.416C620.401 292.416 629.473 289.176 630.769 289.176C630.985 288.96 630.985 288.96 631.201 288.96C631.417 288.96 631.417 288.96 631.417 288.744C631.633 288.96 633.361 288.744 633.577 288.744L633.793 287.664C634.009 287.664 634.009 287.664 634.009 287.448C634.009 287.232 634.009 287.232 634.225 287.016L634.441 286.8L634.873 284.64C634.225 283.776 634.009 283.56 634.009 283.992C633.793 284.208 633.793 284.208 634.009 284.424L633.145 283.56L630.985 283.776C630.769 283.56 630.337 283.344 629.689 283.344C629.041 283.56 628.393 283.56 627.745 283.56C626.665 283.56 625.585 283.776 624.721 283.776L624.505 283.776L624.073 284.208C623.857 284.424 623.641 284.424 623.209 284.424C622.993 284.424 621.481 285.072 621.265 285.072L619.537 285.72C619.105 285.936 618.673 285.936 618.457 285.936L617.377 286.152L615.865 286.152L615.433 286.152C613.705 286.8 609.601 287.448 608.953 287.448C608.737 287.448 606.793 287.88 606.577 287.88C605.929 287.88 605.497 288.096 604.849 288.744C599.233 290.904 598.801 290.688 592.321 294.144C590.809 295.008 580.873 299.76 580.441 300.192L569.425 306.888C569.209 307.104 567.481 307.968 567.481 308.184L566.833 308.832C566.617 308.832 564.889 309.48 564.673 309.48C564.889 309.912 556.033 313.584 555.817 313.584C555.601 313.8 555.601 313.8 555.385 313.8L554.521 313.8C554.521 313.8 554.305 314.016 553.657 314.232L552.793 314.664C552.577 314.664 552.361 314.664 552.145 314.88L551.281 315.312L551.497 316.176C551.497 316.392 551.713 316.392 552.361 316.392C552.577 316.392 553.009 316.392 553.225 316.608C557.545 315.744 559.489 315.096 561.001 314.448C561.649 314.232 562.081 313.8 562.297 313.584L562.945 313.8L563.161 313.8C563.377 313.8 563.593 313.8 563.809 313.584C564.025 313.584 564.457 313.584 564.673 313.368C565.753 312.288 568.561 310.776 569.641 310.776C571.153 310.128 573.745 308.184 574.393 308.832C575.473 309.48 574.609 325.248 592.321 325.248C592.537 325.248 593.185 325.68 593.401 325.68L597.721 325.464Z"/>
<path clip-path="url(#TextBounds)" d="M661.441 285.504C661.009 285.936 660.793 286.584 660.793 287.232C660.793 287.88 660.361 289.392 655.393 292.632C649.561 295.44 640.921 307.32 639.193 309.696C635.953 314.664 638.113 320.928 642.433 324.168C649.777 329.136 656.473 327.192 662.521 326.544C668.353 325.68 674.617 324.384 676.561 322.008C678.073 321.36 680.017 320.496 682.177 319.848C682.393 319.632 682.825 319.632 683.041 319.632L693.193 317.688C694.489 317.472 695.785 317.04 696.865 316.392C698.809 315.528 701.185 314.664 702.697 313.584C704.641 312.72 706.369 311.64 708.097 310.56L711.337 308.4C711.985 306.888 712.849 306.024 709.609 306.24C708.097 306.456 705.937 309.48 700.753 310.992C700.105 311.64 698.809 312.072 697.297 312.72L695.569 313.152C695.353 313.152 694.921 313.368 694.273 313.584L693.625 313.8C693.625 313.8 693.409 313.8 693.193 313.8L692.545 313.8L690.601 313.8C691.681 313.152 691.249 312.288 693.625 311.64C694.489 310.128 698.593 306.024 700.321 300.84L700.321 299.976C700.969 295.872 698.809 290.472 697.081 287.232C689.953 283.776 675.265 288.96 669.001 292.632C667.921 292.416 667.921 291.552 667.921 291.336C667.921 291.12 667.921 290.688 668.137 290.472C669.001 288.744 670.513 288.744 670.513 287.88C669.649 284.64 665.113 284.64 662.521 284.64L661.441 285.504ZM688.225 299.976C686.497 311.424 678.073 314.448 670.513 319.2C665.113 321.144 659.065 324.168 653.665 322.656C645.241 319.632 647.401 312.288 650.425 306.456C654.529 300.624 660.145 293.712 667.057 292.632L663.169 295.872C669.217 299.976 675.265 291.984 680.881 292.632C684.553 290.688 685.417 297.168 688.225 299.976Z"/>
<path clip-path="url(#TextBounds)" d="M710.905 306.672C703.993 310.992 697.297 318.336 697.945 328.488C699.025 330.432 700.537 332.592 701.185 334.104C702.265 336.264 703.777 337.344 705.721 337.344C707.665 337.344 709.393 337.776 711.121 338.424C718.249 340.584 723.217 335.184 729.697 334.104C739.417 326.112 738.769 331.512 751.513 321.144C762.529 315.96 762.097 319.848 778.729 310.128C778.297 309.264 777.649 308.832 777.001 308.832C769.873 312.072 764.689 313.8 761.881 314.232C759.073 314.448 757.129 314.448 755.617 314.016C755.617 308.616 764.905 293.064 753.457 291.336C749.137 293.712 745.897 293.496 742.441 296.952C740.497 299.328 738.121 303.432 739.633 306.672C740.281 308.616 741.577 313.152 745.897 312.288C748.489 315.528 743.737 317.256 741.793 319.848C734.881 323.952 728.617 330.432 720.841 331.944C717.601 332.592 713.497 334.104 711.121 330.648C709.609 325.464 713.281 319.848 716.521 316.608C730.993 303.432 743.737 289.392 755.617 275.352L762.313 271.896C765.769 269.52 770.953 267.36 770.953 262.176C781.105 256.776 790.177 250.08 796.873 240.36C800.113 240.36 801.409 236.904 804.649 234.96C813.073 225.888 825.385 219.84 829.489 207.744C830.137 207.096 830.353 206.448 830.353 205.584C830.353 204.504 830.137 203.856 829.489 203.64C827.545 202.128 826.033 202.344 824.089 202.344C808.321 207.312 794.929 222.648 784.129 236.256C781.753 241.44 773.113 243.384 773.113 250.08C756.697 265.632 740.497 284.64 721.489 296.952L710.905 306.672ZM815.449 215.304C816.529 217.68 814.153 219.408 813.289 220.92C796.873 234.96 783.481 250.08 766.417 262.176L781.753 241.44C787.585 238.2 792.769 232.8 796.873 229.56L796.873 226.104C801.409 224.16 804.433 220.92 807.889 217.464C810.265 217.464 812.209 214.44 815.449 215.304Z"/>
<path clip-path="url(#TextBounds)" d="M955.201 342.312C956.065 343.392 957.145 344.04 958.657 344.04C960.169 344.04 961.033 342.96 962.545 341.88C962.761 341.88 964.705 340.584 965.569 340.368C967.945 338.856 969.889 338.424 971.401 337.344C974.209 335.4 975.505 334.104 977.449 331.728C977.665 331.728 995.161 314.88 994.513 313.584C997.753 310.344 999.481 306.888 1003.15 303.648C1003.15 303.216 1003.15 303 1003.37 302.784C1003.37 302.568 1003.37 302.568 1003.59 302.352L1005.1 301.488L1006.39 299.544L1007.26 298.896L1012.87 294.144C1013.74 293.28 1013.74 294.144 1015.25 293.928L1015.9 293.28C1017.41 293.28 1019.79 293.928 1020.87 292.848L1029.51 292.848L1030.15 292.416C1030.37 292.2 1030.8 291.984 1031.02 291.984L1034.47 291.984L1034.91 291.552C1035.55 291.552 1038.58 291.12 1039.44 291.12L1041.17 290.904L1043.11 291.12L1043.55 291.12L1044.63 290.256L1050.03 290.256C1051.54 288.096 1053.91 290.904 1055.64 287.88L1055.64 287.232C1055.64 286.368 1053.91 286.368 1053.27 286.368L1052.62 286.368L1052.19 286.8L1050.03 286.8L1049.16 287.232L1047.65 288.096L1047.22 287.232L1047 287.232L1046.57 287.232C1045.06 287.232 1037.93 287.88 1036.63 287.88C1036.63 288.096 1035.55 288.96 1035.34 288.96L1034.91 288.96C1034.04 288.96 1033.61 288.744 1032.53 288.096L1025.83 288.096L1025.83 287.232C1024.97 287.232 1021.95 286.8 1020.87 286.8C1020.43 286.8 1020.22 286.584 1020.22 285.936L1020.22 285.288L1020.87 284.208C1021.51 283.56 1022.81 282.48 1022.81 282.264C1023.46 281.616 1023.89 280.104 1024.54 279.456C1026.05 280.104 1029.29 279.24 1029.29 277.296C1029.29 276.648 1028.86 276.864 1028.86 276.216L1029.51 275.136L1032.31 272.112L1033.61 270.6C1037.07 268.872 1044.41 250.944 1050.24 252.024C1051.32 251.376 1052.4 250.512 1053.27 249.432C1050.67 252.024 1075.08 226.32 1076.59 224.808L1079.62 221.352L1080.05 221.136L1080.91 220.704L1081.78 218.76L1081.99 218.328C1082.64 218.112 1084.15 216.816 1084.8 216.168C1085.67 215.52 1088.47 212.496 1089.55 211.632C1090.2 209.256 1092.58 209.04 1093.66 207.096L1094.09 206.448L1096.47 204.072L1097.55 203.424L1098.19 202.992L1099.06 201.48L1100.57 200.4L1101.22 199.968L1101.65 197.808L1103.59 197.376C1103.81 196.944 1104.24 196.512 1104.67 196.08L1106.62 194.352C1101 199.968 1142.47 161.088 1143.12 161.088C1143.12 158.712 1165.59 143.376 1166.02 143.376L1169.91 141.432C1172.5 139.92 1175.95 139.272 1175.95 135.816C1175.95 134.304 1174.01 133.872 1172.5 133.224L1171.2 133.224L1170.77 132.792L1169.91 132.792C1167.31 132.792 1166.02 134.736 1164.29 136.248C1162.78 137.76 1160.83 138.192 1159.32 139.704L1158.24 140.568L1156.73 141.432C1154.35 143.16 1145.28 150.504 1143.55 151.584L1142.69 152.016C1147.66 150.288 1107.7 177.72 1106.19 177.72L1105.75 177.936C1103.16 179.664 1100.57 181.824 1098.19 183.552C1097.55 184.2 1094.31 185.064 1093.66 185.712C1091.28 187.224 1091.07 188.736 1088.47 189.6C1086.1 192.624 1033.18 229.344 1012.87 238.2L1012.23 238.848L1011.58 238.848L1010.71 238.2C1010.07 238.2 1007.91 237.336 1007.26 237.336C1006.39 236.688 1003.8 235.824 1003.15 235.824L997.753 235.824C997.105 234.744 996.025 235.176 995.161 235.176C994.513 235.176 992.137 234.744 991.921 234.744C967.945 238.632 940.729 254.616 940.081 263.256L939.649 264.12C938.569 265.632 937.489 266.28 937.489 267.792C938.137 271.896 936.841 275.784 940.081 279.888C942.025 282.48 940.081 282.264 942.673 283.344L943.537 283.776C945.481 284.856 946.561 285.288 946.561 286.8C946.561 287.448 946.345 287.88 946.129 288.096C945.481 288.096 943.321 289.176 942.673 289.824C942.457 289.824 941.161 291.984 940.513 291.984C938.353 293.064 930.793 298.896 928.417 298.896L927.769 299.328L922.369 303.216C894.289 320.28 875.713 325.896 878.305 325.896C877.657 325.896 875.497 327.192 874.849 327.192L871.825 327.192C871.177 327.192 869.881 328.704 869.233 328.704C867.721 328.92 864.265 330.216 863.185 330.864L861.241 330.864L860.593 331.296L860.161 331.728L858.217 331.728C857.137 331.728 856.921 333.24 855.409 333.24L853.681 333.24L852.817 333.672C852.601 333.888 852.169 333.888 851.521 333.888C850.873 333.888 848.713 334.536 848.065 334.536L845.041 334.536L844.177 334.968C843.961 334.968 842.233 335.832 841.585 335.832L840.505 336.912L838.561 336.912L837.913 337.344L836.401 337.344L834.889 337.344L833.377 336.912C832.729 336.912 830.569 337.56 829.921 337.56L826.249 337.56L824.737 337.992L823.441 337.992C820.633 337.992 816.745 336.48 816.745 332.376C817.393 331.728 818.041 328.92 818.689 328.704L819.337 327.192L820.633 325.896L821.713 323.736L823.225 323.304L824.089 322.872L824.737 322.224C826.249 320.712 825.817 320.064 827.761 320.064C831.001 320.064 833.377 321.144 837.481 321.144L839.857 321.144C840.505 320.496 841.801 320.064 842.449 320.064C843.097 320.064 844.825 319.632 845.473 319.632C846.121 319.632 848.497 318.984 849.361 318.336C851.305 317.04 858.001 313.152 858.649 311.208C858.649 310.56 859.297 307.104 859.297 306.24C859.945 306.24 859.729 305.592 859.729 304.944C859.729 302.352 858.217 300.408 856.273 298.896L854.113 298.464L852.817 298.032C851.953 298.032 848.065 298.896 847.201 298.896C844.825 299.544 840.937 301.056 839.425 302.568L838.993 303.648C838.345 304.296 836.185 305.592 835.537 306.24L831.865 310.128L830.569 310.776C829.921 311.424 829.057 311.424 828.841 311.64L827.329 312.288L826.249 313.584C824.737 314.232 823.441 314.232 822.361 315.312L820.849 316.176C817.177 318.552 814.153 320.712 812.641 325.68L812.641 325.896C811.993 327.408 811.561 326.976 811.561 329.352C811.561 330.216 811.993 331.296 811.993 331.944C811.993 332.808 811.561 332.808 811.561 333.888C811.561 334.32 811.777 334.752 811.993 334.968C814.801 338.208 817.609 340.368 821.713 341.88L822.361 341.88L823.441 341.448C826.249 341.448 827.113 342.312 829.489 342.312C832.297 342.312 834.457 341.664 836.833 341.016C840.073 340.368 842.233 340.368 845.473 339.288C845.905 339.288 846.337 339.288 846.553 339.072C846.769 339.072 846.985 339.072 847.201 338.856L848.497 338.856C849.145 338.856 851.737 337.56 852.385 337.56C853.033 337.56 854.329 337.344 854.977 337.344C856.489 336.696 856.489 335.4 858.001 335.4L859.729 335.4C860.377 335.4 861.025 334.536 861.673 334.536L863.617 334.536L864.265 333.888L865.777 333.888L867.073 333.24L869.881 333.24C870.529 333.24 871.609 331.296 872.257 331.296L873.769 330.864C874.417 330.864 875.713 329.784 876.361 329.784L922.369 309.264L923.233 308.832L924.313 307.968C925.825 306.456 928.417 304.728 930.793 304.08C935.761 301.272 948.073 293.28 949.585 292.848C951.313 292.2 951.097 291.12 953.473 290.904C954.121 290.904 954.985 290.256 955.633 290.256L956.065 290.256C956.713 290.256 957.577 291.12 958.225 291.12C961.681 291.984 965.785 293.928 969.457 293.928C971.185 293.928 972.265 293.28 973.777 293.28L974.209 293.28L975.937 294.144L978.529 294.144L980.473 294.144L981.553 293.928L988.033 293.928C988.897 294.576 993.433 294.36 995.161 295.008L995.161 295.44C995.161 297.816 991.489 301.92 989.977 303.648L989.113 304.512C986.521 306.24 983.929 307.752 981.985 310.128L980.257 312.288C979.609 312.936 978.961 314.232 977.881 313.584L978.529 314.232L972.913 320.064C971.401 320.064 968.809 322.872 967.729 323.736L967.297 324.168C966.433 325.68 965.785 326.76 964.705 327.84C963.841 328.488 959.521 330.648 959.521 331.296C958.009 332.808 956.497 334.536 955.633 336.264C954.985 337.344 955.201 339.072 955.201 340.584L955.201 342.312ZM846.769 335.832L847.201 336.264L846.769 336.264L846.769 335.832ZM974.857 289.824C973.345 289.824 971.401 288.96 969.889 288.96C968.809 288.96 968.377 289.392 967.729 289.392C966.433 289.392 958.657 287.88 958.657 286.8L959.089 285.936L962.545 282.48L963.409 282.48L963.841 282.264C960.817 284.424 988.897 261.96 990.409 262.608C991.057 262.608 991.705 262.176 992.137 261.528C994.729 259.152 997.537 257.208 1000.78 255.48L1002.07 255.048L1003.15 254.184L1003.8 253.752C1004.23 253.32 1004.45 253.104 1004.67 253.104C1006.18 252.888 1007.04 252.024 1008.55 251.16L1009.2 250.512C1010.71 248.568 1011.36 247.488 1014.6 247.488L1015.25 247.488C1017.63 249.432 1015.9 251.808 1016.76 254.184C1017.19 255.264 1015.25 272.976 1010.28 276.432L1008.55 281.832C1006.39 281.832 1002.94 287.448 1000.56 288.528L974.857 289.824ZM943.537 275.136C943.537 273.624 943.969 273.192 943.969 271.68L943.537 270.816C944.185 268.44 945.049 268.656 945.697 267.144C946.345 266.496 947.425 263.256 948.073 262.608C949.153 260.664 951.097 259.152 952.609 257.208L953.041 255.912C951.097 252.888 983.281 240.36 988.897 240.36C989.545 240.36 989.977 240.792 991.057 240.792C991.705 240.792 991.921 240.576 991.921 240.36L994.081 240.36L995.593 240.36L997.537 241.224L997.753 241.224L999.049 240.792L1001.21 240.792L1002.07 240.36L1002.51 240.36C1003.59 240.36 1005.31 241.44 1006.83 242.52L1007.26 242.952C1007.26 243.816 1006.39 244.248 1006.18 244.248C1005.1 244.248 1004.45 244.032 1004.23 243.816C1003.59 245.544 1002.29 245.328 1000.78 246.84L1000.56 247.488C999.913 248.136 999.049 249.648 998.185 250.296C997.537 250.512 994.729 252.24 994.081 252.888C995.593 252.888 958.657 280.32 958.657 279.24L958.225 280.32L956.497 280.32C954.121 280.968 953.257 283.776 950.017 283.776C948.505 282.264 947.209 281.4 945.697 279.888L944.401 279.24C943.537 277.728 943.537 276.648 943.537 275.136ZM1029.51 278.16L1029.51 278.808L1029.94 278.16L1029.51 278.16ZM1020.22 271.248L1020.22 268.656C1020.22 267.576 1019.79 264.768 1020.87 263.688C1023.24 257.64 1016.33 243.168 1019.79 242.088C1020.65 241.224 1023.89 239.496 1025.4 238.848L1026.27 237.768L1027.56 237.768L1031.02 234.312L1031.02 233.88C1033.61 235.824 1057.15 217.896 1059.31 216.168C1060.18 215.52 1061.69 215.736 1062.34 215.088C1062.99 213.576 1067.74 209.472 1068.82 210.12L1069.68 209.472C1071.41 207.96 1072.06 208.176 1073.57 207.096C1076.38 204.288 1083.94 199.536 1086.53 198.024L1086.96 197.808L1089.12 196.944L1089.55 196.512L1090.63 194.784L1091.71 194.136L1093.44 193.056L1097.11 190.464L1098.63 189.168L1100.14 188.736C1101.22 188.088 1102.08 186.576 1103.59 186.576C1103.59 189.168 1099.71 191.328 1098.19 193.056C1096.47 194.568 1093.01 198.456 1090.42 198.456L1090.42 199.536C1090.2 200.184 1089.77 200.616 1089.34 201.048L1087.61 202.992L1086.96 203.424L1084.37 206.016L1083.51 207.096L1083.07 207.528L1081.78 208.608L1078.97 211.2L1077.46 212.496C1076.81 212.712 1075.95 214.44 1075.3 215.088C1075.3 211.632 1052.83 242.952 1049.16 242.952C1048.95 243.168 1048.73 243.168 1048.51 243.168C1048.3 243.384 1047.87 243.384 1047.65 243.384C1047 244.248 1043.98 247.272 1043.11 248.136L1040.95 249.432L1040.52 249.864C1026.7 264.768 1023.89 269.304 1021.51 271.68L1020.87 271.68L1020.22 271.248ZM1074 223.728C1074.65 223.728 1074.65 224.376 1074 224.376C1073.35 224.376 1073.35 223.728 1074 223.728ZM1105.75 174.912L1105.75 175.344L1106.19 175.776L1106.19 175.344L1105.75 174.912Z"/>
<path clip-path="url(#TextBounds)" d="M1173.79 212.28C1155.65 238.416 1131.46 260.88 1103.59 277.08C1102.51 277.512 1096.9 282.264 1097.11 279.672C1097.11 278.16 1098.19 274.92 1101.65 272.328C1102.51 273.192 1137.29 236.256 1147.44 224.376C1152.41 220.92 1159.54 214.008 1165.15 210.984L1167.75 210.552C1168.39 209.904 1169.04 209.688 1169.47 209.688C1171.42 209.688 1171.63 211.848 1173.79 212.28ZM1053.48 310.992C1055.43 310.128 1058.45 307.104 1061.26 309.48C1056.51 314.88 1056.51 315.96 1050.67 323.52C1047.87 328.488 1046.79 330.864 1048.3 335.184C1049.38 337.992 1052.19 337.992 1057.59 337.992C1068.82 337.992 1079.83 331.944 1090.2 328.272C1093.01 326.76 1096.68 325.464 1099.49 323.088L1101.87 322.008C1105.32 320.496 1108.78 318.768 1112.02 316.392C1114.83 314.016 1117.63 312.504 1118.28 311.856C1118.5 311.424 1118.5 310.992 1118.5 310.56C1118.93 309.264 1118.07 308.832 1113.96 312.072C1113.1 312.72 1110.94 313.584 1110.07 314.232C1107.7 315.96 1104.03 317.256 1101.65 318.768L1100.14 319.416C1088.26 326.544 1072.71 330.648 1069.03 331.296C1062.34 332.376 1059.75 332.376 1059.75 328.704C1059.1 321.792 1071.63 310.776 1072.71 304.728C1088.26 291.984 1108.99 280.536 1126.71 266.712C1130.16 264.984 1160.83 241.872 1179.19 209.904L1180.06 208.176C1180.06 207.528 1180.27 206.88 1180.49 206.232C1181.57 204.288 1181.57 202.128 1180.92 201.048C1177.03 193.056 1153.71 209.256 1150.47 211.632C1138.59 218.976 1135.35 224.592 1128.87 229.776C1112.02 245.544 1100.14 258.72 1089.77 276C1082.43 280.536 1080.48 290.688 1075.3 294.144C1071.84 297.6 1068.82 298.68 1066.44 300.192C1064.93 300.624 1063.2 301.488 1060.83 303C1052.83 306.672 1048.95 309.48 1043.98 311.856C1038.58 314.016 1039.44 314.664 1031.67 316.392L1029.07 317.04C1028.64 317.472 1028.43 317.904 1028.64 318.336C1028.43 319.2 1029.29 319.416 1031.02 318.984C1032.1 318.984 1038.58 319.632 1053.48 310.992Z"/>
<path clip-path="url(#TextBounds)" d="M1142.69 305.592C1145.07 304.728 1147.87 301.704 1150.68 304.512C1151.76 307.752 1148.74 309.696 1148.09 312.072C1139.67 322.656 1130.38 332.16 1120.66 341.448C1102.3 358.728 1082.64 374.28 1065.36 393.936C1064.5 395.016 1064.07 396.312 1064.07 397.824C1064.07 399.336 1064.5 400.632 1065.58 401.712C1067.31 403.44 1070.55 402.36 1072.06 401.496C1082.21 392.208 1092.58 382.272 1102.73 373.632C1112.45 362.616 1123.68 352.896 1133.4 341.88C1140.53 334.104 1146.58 326.112 1151.55 316.824L1155 315.528C1157.81 318.984 1161.27 321.144 1165.37 322.008C1171.2 323.088 1178.11 321.792 1184.81 320.28C1186.11 320.064 1187.4 319.632 1188.48 318.984C1190.43 318.12 1192.8 317.256 1194.31 316.176C1197.99 314.448 1202.09 311.64 1202.95 310.992C1203.6 309.48 1204.47 308.616 1201.23 308.832C1199.71 309.048 1197.55 312.072 1192.37 313.584C1189.35 315.96 1178.76 317.904 1174.87 317.904C1169.91 317.688 1164.72 317.256 1161.48 312.936C1160.4 311.856 1159.97 310.776 1159.97 309.696C1159.97 306.456 1162.35 303.864 1162.78 300.408C1166.02 298.68 1168.18 297.384 1172.28 296.736C1183.51 284.856 1195.39 276.648 1207.49 266.496C1210.51 263.472 1215.48 260.448 1214.83 255.48C1213.75 253.536 1212.24 253.536 1209.87 253.536C1204.9 256.776 1200.79 260.664 1196.47 264.984C1187.62 273.84 1178.98 283.56 1167.96 288.528C1162.35 291.336 1164.51 282.696 1162.35 280.536C1152.63 279.456 1152.63 291.768 1148.52 297.6C1141.39 301.272 1137.51 304.08 1132.54 306.456C1128.22 308.832 1123.25 310.344 1114.83 311.856L1112.45 312.504L1113.1 313.584C1113.75 314.232 1114.18 314.448 1114.83 314.448C1116.34 314.448 1128.43 314.232 1142.69 305.592Z"/>
<path clip-path="url(#TextBounds)" d="M1219.15 285.504C1218.72 285.936 1218.51 286.584 1218.51 287.232C1218.51 287.88 1218.07 289.392 1213.11 292.632C1207.27 295.44 1198.63 307.32 1196.91 309.696C1193.67 314.664 1195.83 320.928 1200.15 324.168C1207.49 329.136 1214.19 327.192 1220.23 326.544C1226.07 325.68 1232.33 324.384 1234.27 322.008C1235.79 321.36 1237.73 320.496 1239.89 319.848C1240.11 319.632 1240.54 319.632 1240.75 319.632L1250.91 317.688C1252.2 317.472 1253.5 317.04 1254.58 316.392C1256.52 315.528 1258.9 314.664 1260.41 313.584C1262.35 312.72 1264.08 311.64 1265.81 310.56L1269.05 308.4C1269.7 306.888 1270.56 306.024 1267.32 306.24C1265.81 306.456 1263.65 309.48 1258.47 310.992C1257.82 311.64 1256.52 312.072 1255.01 312.72L1253.28 313.152C1253.07 313.152 1252.63 313.368 1251.99 313.584L1251.34 313.8C1251.34 313.8 1251.12 313.8 1250.91 313.8L1250.26 313.8L1248.31 313.8C1249.39 313.152 1248.96 312.288 1251.34 311.64C1252.2 310.128 1256.31 306.024 1258.03 300.84L1258.03 299.976C1258.68 295.872 1256.52 290.472 1254.79 287.232C1247.67 283.776 1232.98 288.96 1226.71 292.632C1225.63 292.416 1225.63 291.552 1225.63 291.336C1225.63 291.12 1225.63 290.688 1225.85 290.472C1226.71 288.744 1228.23 288.744 1228.23 287.88C1227.36 284.64 1222.83 284.64 1220.23 284.64L1219.15 285.504ZM1245.94 299.976C1244.21 311.424 1235.79 314.448 1228.23 319.2C1222.83 321.144 1216.78 324.168 1211.38 322.656C1202.95 319.632 1205.11 312.288 1208.14 306.456C1212.24 300.624 1217.86 293.712 1224.77 292.632L1220.88 295.872C1226.93 299.976 1232.98 291.984 1238.59 292.632C1242.27 290.688 1243.13 297.168 1245.94 299.976Z"/>
<path clip-path="url(#TextBounds)" d="M1298.43 289.824C1296.7 287.016 1299.94 285.504 1301.45 283.992C1302.96 282.48 1306.2 280.536 1306.85 278.16L1307.07 277.944L1305.99 276C1305.34 275.136 1303.61 275.136 1303.39 275.136C1302.75 275.136 1302.31 275.136 1301.88 275.352L1301.45 275.352C1297.35 276.864 1293.67 279.672 1291.3 283.128L1290.43 283.776C1288.06 285.936 1286.33 287.232 1285.25 287.664L1284.39 288.312C1283.52 289.392 1282.01 290.04 1281.79 292.416L1281.79 292.848L1282.01 292.848L1281.79 293.496C1282.01 293.712 1282.01 293.928 1282.01 293.928L1280.93 296.088C1280.28 296.304 1280.07 296.736 1279.42 296.952L1275.75 299.112C1272.51 301.488 1267.75 303.216 1264.95 305.16L1258.9 309.696C1256.31 310.56 1253.07 312.072 1249.18 314.016L1246.8 314.664L1247.45 315.744C1248.1 316.392 1248.53 316.608 1249.18 316.608C1249.61 316.608 1250.26 316.392 1251.34 315.744C1251.55 315.744 1252.2 315.528 1253.28 314.88C1254.58 314.232 1256.09 313.584 1258.03 313.152C1259.11 312.936 1260.63 312.504 1263 311.424L1261.92 312.288L1266.03 310.344C1268.83 309.048 1274.23 305.592 1281.79 300.192C1281.79 299.544 1284.82 298.248 1287.63 296.736C1292.59 295.656 1296.48 297.168 1300.8 293.928L1302.53 293.496C1304.04 293.496 1304.26 293.064 1305.12 292.416L1305.99 291.984L1306.63 292.2C1306.85 292.2 1307.07 292.416 1307.71 292.2L1306.42 293.928C1300.37 299.976 1286.98 304.512 1280.07 313.584L1277.91 316.176C1276.18 317.256 1271.43 323.088 1271.43 324.384C1271.21 325.896 1271.64 328.272 1273.15 329.136L1273.15 329.352C1273.37 329.568 1273.37 329.568 1273.59 329.568C1273.8 329.784 1274.23 330 1274.88 330C1275.1 330.216 1275.1 330.216 1275.1 330.432C1275.96 331.08 1276.39 331.512 1277.91 331.512C1278.55 331.08 1278.99 331.08 1279.2 331.296C1279.63 331.296 1279.85 331.296 1280.07 331.08C1280.93 331.944 1281.58 331.944 1282.23 331.08C1282.87 330.432 1284.39 329.568 1285.9 328.92L1286.11 328.92L1288.71 328.056C1291.08 326.544 1296.05 325.68 1296.7 325.68L1304.47 321.792C1304.69 321.144 1309.01 319.848 1311.39 318.12L1315.27 314.88C1316.35 314.664 1317.87 313.584 1320.03 311.856C1321.11 310.992 1322.62 309.912 1323.27 309.696C1324.78 309.48 1324.78 308.616 1324.99 307.968L1325.43 307.536L1325.21 307.536C1322.62 305.16 1319.81 307.536 1316.35 309.048L1316.57 309.048L1314.63 310.128L1312.68 311.856C1309.44 313.152 1297.35 319.848 1293.89 321.576C1292.38 322.656 1286.98 324.384 1286.98 324.384C1286.76 324.6 1286.55 324.6 1286.55 324.6L1286.33 324.6L1285.9 324.6L1286.33 324.168C1286.33 322.656 1287.19 322.008 1287.84 321.144C1290.43 317.472 1290.87 317.472 1293.24 315.096C1294.75 313.584 1297.56 311.64 1299.94 308.4L1302.96 305.592L1303.18 305.376C1303.83 305.16 1304.47 304.512 1305.55 303.432L1306.85 302.136L1318.3 292.848C1318.95 291.336 1320.46 290.904 1321.32 289.176C1321.32 285.504 1319.16 283.992 1315.92 284.64C1314.19 284.64 1313.76 286.152 1312.25 287.016C1310.74 287.664 1309.23 287.664 1307.28 288.528C1306.42 288.528 1305.99 288.744 1304.47 288.744C1303.39 289.608 1300.8 289.824 1298.43 290.04L1298.43 289.824Z"/>
<path clip-path="url(#TextBounds)" d="M1315.27 325.248C1315.27 329.784 1323.27 331.296 1325.64 331.296C1329.75 331.296 1337.31 331.296 1340.76 328.704C1344.22 326.976 1342.71 323.952 1347.67 323.952C1350.05 322.008 1358.91 313.8 1361.93 312.72C1362.58 312.72 1367.55 309.048 1368.63 309.048C1369.27 309.048 1374.24 303.648 1376.62 301.272C1383.53 293.712 1391.52 285.072 1392.6 274.704L1392.6 267.36L1393.68 265.416L1393.68 261.528C1393.68 244.896 1376.62 235.392 1360.63 235.392L1356.96 235.392L1360.63 236.472L1363.87 238.632L1368.63 239.712C1369.27 239.712 1374.24 244.68 1375.54 244.68L1377.48 245.544C1378.13 246.192 1378.99 247.272 1379.86 247.92C1380.51 248.568 1380.94 249 1381.37 249.216C1381.37 250.296 1386.12 257.424 1386.12 258.072L1387.2 259.584L1386.12 262.824C1384.39 268.656 1384.61 275.568 1381.37 281.4C1367.55 280.32 1360.63 283.776 1348.75 289.392C1345.3 290.904 1339.68 293.928 1336.23 296.736C1335.15 297.816 1330.39 303 1329.53 303.432C1321.11 310.344 1315.27 314.016 1315.27 325.248ZM1329.53 322.008C1329.53 309.264 1351.13 301.272 1358.91 296.736C1360.63 296.736 1364.95 291.768 1366.25 291.768C1367.76 291.12 1375.54 287.448 1377.48 287.448L1377.48 288.312C1376.62 289.392 1372.95 293.928 1371.87 295.656L1369.49 299.544L1368.63 301.272L1365.17 303.432C1362.79 304.512 1352.86 312.72 1351.13 313.8C1351.13 314.88 1351.13 317.04 1350.27 317.04L1345.3 317.04L1344 317.688C1342.92 318.336 1342.27 318.768 1342.06 319.416L1339.68 322.008L1336.23 322.872L1331.47 325.248L1330.39 324.384C1329.75 323.736 1329.53 323.304 1329.53 322.872L1329.53 322.008ZM1250.47 276.864C1250.47 277.728 1251.55 278.808 1253.07 278.808C1261.06 278.808 1260.84 270.816 1263.65 269.736L1267.97 269.736C1272.51 268.224 1275.75 265.632 1279.42 261.528C1281.79 259.584 1285.25 259.584 1287.19 258.072C1291.3 256.128 1293.46 253.752 1297.78 251.16C1299.29 250.512 1301.67 249.864 1304.04 248.784L1308.36 246.84L1314.41 245.544L1318.95 243.168C1320.46 243.168 1324.56 242.088 1325.64 242.088L1329.53 239.712C1330.61 239.712 1339.68 237.768 1342.06 237.768C1345.3 237.768 1350.05 238.632 1352.43 235.392C1350.91 235.392 1347.67 234.096 1346.59 234.096L1345.3 234.096L1344 234.096L1339.68 235.392C1330.39 236.472 1322.4 237.768 1313.11 241.008L1310.74 242.088L1305.99 242.088L1302.53 244.68L1300.37 245.544C1290.22 250.296 1280.5 255.264 1271.43 260.664L1270.35 261.528L1269.05 263.904C1265.59 266.496 1260.84 268.224 1257.39 269.736C1256.74 269.736 1255.87 270.168 1255.23 270.384L1253.93 271.032L1253.93 273.192C1253.07 275.784 1250.47 274.92 1250.47 276.864ZM1274.88 259.584C1275.75 259.584 1275.75 261.528 1274.88 261.528C1273.8 261.528 1273.8 259.584 1274.88 259.584ZM1484.4 311.856C1480.73 315.312 1478.57 317.04 1478.14 316.824C1482.24 314.016 1481.81 315.96 1483.54 315.96C1486.35 315.096 1488.94 314.016 1491.75 314.016C1494.34 313.368 1496.07 311.64 1497.15 310.56L1497.15 309.696L1497.15 308.832C1496.07 308.832 1494.34 309.696 1492.61 310.56C1490.67 311.64 1490.02 311.64 1488.94 311.64C1488.29 311.64 1487.21 312.288 1485.48 312.288L1483.54 312.288L1484.4 311.856Z"/>
</g>
</g>
</svg>
